<svg width="28" height="28" viewBox="0 0 28 28" fill="none" xmlns="http://www.w3.org/2000/svg">
<g id="check">
<path id="Vector 279" opacity="0.4" d="M27.3337 14C27.3337 21.3638 21.3641 27.3334 14.0003 27.3334C6.63653 27.3334 0.666992 21.3638 0.666992 14C0.666992 6.63622 6.63653 0.666687 14.0003 0.666687C21.3641 0.666687 27.3337 6.63622 27.3337 14Z" fill="#F2C654"/>
<path id="Vector 1265 (Stroke)" fill-rule="evenodd" clip-rule="evenodd" d="M19.9476 9.21069C20.3836 9.54976 20.4621 10.178 20.123 10.614L14.7804 17.4831C13.9487 18.5524 12.3844 18.6911 11.3776 17.785L7.99804 14.7433C7.58753 14.3739 7.55425 13.7416 7.92371 13.3311C8.29317 12.9206 8.92546 12.8873 9.33597 13.2568L12.7155 16.2984C12.8594 16.4278 13.0828 16.408 13.2016 16.2553L18.5443 9.38611C18.8834 8.95016 19.5117 8.87162 19.9476 9.21069Z" fill="#F2C654"/>
</g>
</svg>
