<svg width="32" height="32" viewBox="0 0 32 32" fill="none" xmlns="http://www.w3.org/2000/svg">
<path opacity="0.4" d="M29.3337 16C29.3337 23.3638 23.3641 29.3333 16.0003 29.3333C8.63653 29.3333 2.66699 23.3638 2.66699 16C2.66699 8.63621 8.63653 2.66667 16.0003 2.66667C23.3641 2.66667 29.3337 8.63621 29.3337 16Z" fill="#34FA48"/>
<path fill-rule="evenodd" clip-rule="evenodd" d="M21.9476 11.2107C22.3836 11.5498 22.4621 12.178 22.123 12.614L16.7804 19.4831C15.9487 20.5524 14.3844 20.6911 13.3776 19.785L9.99804 16.7433C9.58753 16.3739 9.55425 15.7416 9.92371 15.3311C10.2932 14.9206 10.9255 14.8873 11.336 15.2568L14.7155 18.2984C14.8594 18.4278 15.0828 18.408 15.2016 18.2553L20.5443 11.3861C20.8834 10.9502 21.5117 10.8716 21.9476 11.2107Z" fill="#34FA48"/>
</svg>
