<svg xmlns="http://www.w3.org/2000/svg" width="548" height="273" viewBox="0 0 548 273" fill="none">
  <g filter="url(#filter0_i_2148_4102)">
    <path d="M463.496 34.128C428.078 18.1847 390.206 6.59772 350.613 0C345.75 8.45804 340.07 19.8343 336.153 28.8841C294.064 22.7944 252.362 22.7944 211.048 28.8841C207.132 19.8343 201.322 8.45804 196.416 0C156.78 6.59772 118.865 18.2273 83.4462 34.2125C12.0066 138.075 -7.35955 239.358 2.32353 339.203C49.7061 373.246 95.6255 393.926 140.77 407.458C151.916 392.699 161.857 377.01 170.421 360.475C154.111 354.512 138.489 347.154 123.728 338.611C127.644 335.82 131.475 332.902 135.175 329.899C225.206 370.413 323.027 370.413 411.982 329.899C415.727 332.902 419.556 335.82 423.43 338.611C408.625 347.195 392.96 354.554 376.65 360.517C385.214 377.01 395.112 392.742 406.302 407.5C451.49 393.968 497.451 373.288 544.834 339.203C556.196 223.457 525.425 123.105 463.496 34.128ZM182.687 277.799C155.661 277.799 133.497 253.525 133.497 223.965C133.497 194.404 155.187 170.088 182.687 170.088C210.187 170.088 232.35 194.362 231.877 223.965C231.92 253.525 210.187 277.799 182.687 277.799ZM364.471 277.799C337.444 277.799 315.281 253.525 315.281 223.965C315.281 194.404 336.97 170.088 364.471 170.088C391.97 170.088 414.134 194.362 413.661 223.965C413.661 253.525 391.97 277.799 364.471 277.799Z" fill="#020201"/>
  </g>
  <path d="M378.062 361.063C394.044 355.15 409.4 347.902 423.931 339.476L425.266 338.702L424.014 337.8C420.155 335.019 416.339 332.111 412.608 329.119L412.128 328.734L411.568 328.989C322.877 369.382 225.357 369.384 135.586 328.987L135.024 328.734L134.545 329.122C130.86 332.112 127.047 335.018 123.148 337.797L121.883 338.698L123.227 339.477C137.715 347.861 153.03 355.109 169.01 361.021C160.7 376.928 151.109 392.047 140.391 406.3C95.6737 392.828 50.1961 372.303 3.27529 338.655C-6.27742 239.25 13.0512 138.429 84.112 35.0092C119.176 19.2101 156.689 7.6877 195.897 1.10067C200.71 9.46108 206.322 20.4824 210.13 29.2812L210.435 29.9852L211.193 29.8734C252.411 23.798 294.015 23.7977 336.01 29.8738L336.767 29.9833L337.071 29.2813C340.881 20.478 346.37 9.45778 351.135 1.10127C390.3 7.68813 427.77 19.1687 462.833 34.9264C524.453 123.553 555.086 223.455 543.883 338.655C496.961 372.345 451.441 392.87 406.68 406.342C395.925 392.092 386.372 376.935 378.062 361.063ZM132.497 223.965C132.497 253.99 155.025 278.799 182.687 278.799C210.825 278.799 232.916 253.99 232.877 223.972C233.354 193.887 210.813 169.088 182.687 169.088C154.545 169.088 132.497 193.947 132.497 223.965ZM314.281 223.965C314.281 253.99 336.809 278.799 364.471 278.799L413.661 223.965L414.661 223.981C414.661 223.978 414.661 223.976 414.661 223.973C415.138 193.888 392.596 169.088 364.471 169.088C336.328 169.088 314.281 193.947 314.281 223.965Z" stroke="url(#paint0_linear_2148_4102)" stroke-width="2"/>
  <defs>
    <filter id="filter0_i_2148_4102" x="0" y="-10" width="547.16" height="417.5" filterUnits="userSpaceOnUse" color-interpolation-filters="sRGB">
      <feFlood flood-opacity="0" result="BackgroundImageFix"/>
      <feBlend mode="normal" in="SourceGraphic" in2="BackgroundImageFix" result="shape"/>
      <feColorMatrix in="SourceAlpha" type="matrix" values="0 0 0 0 0 0 0 0 0 0 0 0 0 0 0 0 0 0 127 0" result="hardAlpha"/>
      <feOffset dy="-10"/>
      <feGaussianBlur stdDeviation="20"/>
      <feComposite in2="hardAlpha" operator="arithmetic" k2="-1" k3="1"/>
      <feColorMatrix type="matrix" values="0 0 0 0 0.933333 0 0 0 0 0.933333 0 0 0 0 0.933333 0 0 0 0.25 0"/>
      <feBlend mode="normal" in2="shape" result="effect1_innerShadow_2148_4102"/>
    </filter>
    <linearGradient id="paint0_linear_2148_4102" x1="273.58" y1="0" x2="273.58" y2="407.5" gradientUnits="userSpaceOnUse">
      <stop stop-color="#F2C654"/>
      <stop offset="1" stop-color="#F2C654" stop-opacity="0"/>
    </linearGradient>
  </defs>
</svg>