<svg width="61" height="60" viewBox="0 0 61 60" fill="none" xmlns="http://www.w3.org/2000/svg">
<rect x="0.666992" width="60" height="60" rx="30" fill="#020201" fill-opacity="0.1"/>
<path d="M40.3608 21.1068C38.5875 20.2802 36.6675 19.6802 34.6675 19.3335C34.6323 19.334 34.5988 19.3484 34.5741 19.3735C34.3341 19.8135 34.0541 20.3868 33.8675 20.8268C31.7461 20.507 29.5888 20.507 27.4675 20.8268C27.2808 20.3735 27.0008 19.8135 26.7475 19.3735C26.7341 19.3468 26.6941 19.3335 26.6541 19.3335C24.6541 19.6802 22.7475 20.2802 20.9608 21.1068C20.9475 21.1068 20.9341 21.1202 20.9208 21.1335C17.2941 26.5602 16.2941 31.8402 16.7875 37.0668C16.7875 37.0935 16.8008 37.1202 16.8275 37.1335C19.2275 38.8935 21.5341 39.9602 23.8141 40.6668C23.8541 40.6802 23.8941 40.6668 23.9075 40.6402C24.4408 39.9068 24.9208 39.1335 25.3341 38.3202C25.3608 38.2668 25.3341 38.2135 25.2808 38.2002C24.5208 37.9068 23.8008 37.5602 23.0941 37.1602C23.0408 37.1335 23.0408 37.0535 23.0808 37.0135C23.2275 36.9068 23.3741 36.7868 23.5208 36.6802C23.5475 36.6535 23.5875 36.6535 23.6141 36.6668C28.2008 38.7602 33.1475 38.7602 37.6808 36.6668C37.7075 36.6535 37.7475 36.6535 37.7741 36.6802C37.9208 36.8002 38.0675 36.9068 38.2141 37.0268C38.2675 37.0668 38.2675 37.1468 38.2008 37.1735C37.5075 37.5868 36.7741 37.9202 36.0141 38.2135C35.9608 38.2268 35.9475 38.2935 35.9608 38.3335C36.3875 39.1468 36.8675 39.9202 37.3875 40.6535C37.4275 40.6668 37.4675 40.6802 37.5075 40.6668C39.8008 39.9602 42.1075 38.8935 44.5075 37.1335C44.5341 37.1202 44.5475 37.0935 44.5475 37.0668C45.1341 31.0268 43.5741 25.7868 40.4141 21.1335C40.4008 21.1202 40.3875 21.1068 40.3608 21.1068ZM26.0275 33.8802C24.6541 33.8802 23.5075 32.6135 23.5075 31.0535C23.5075 29.4935 24.6275 28.2268 26.0275 28.2268C27.4408 28.2268 28.5608 29.5068 28.5475 31.0535C28.5475 32.6135 27.4275 33.8802 26.0275 33.8802ZM35.3208 33.8802C33.9475 33.8802 32.8008 32.6135 32.8008 31.0535C32.8008 29.4935 33.9208 28.2268 35.3208 28.2268C36.7341 28.2268 37.8541 29.5068 37.8408 31.0535C37.8408 32.6135 36.7341 33.8802 35.3208 33.8802Z" fill="#020201"/>
</svg>