<svg width="61" height="60" viewBox="0 0 61 60" fill="none" xmlns="http://www.w3.org/2000/svg">
<rect x="0.333008" width="60" height="60" rx="30" fill="url(#paint0_linear_2010_5255)" fill-opacity="0.1"/>
<path fill-rule="evenodd" clip-rule="evenodd" d="M17.666 16.3334C17.666 15.7811 17.2183 15.3334 16.666 15.3334C16.1137 15.3334 15.666 15.7811 15.666 16.3334V37.6667C15.666 41.1645 18.5015 44 21.9993 44H43.3327C43.885 44 44.3327 43.5523 44.3327 43C44.3327 42.4478 43.885 42 43.3327 42H21.9993C19.6061 42 17.666 40.0599 17.666 37.6667V16.3334ZM36.3327 25.6667C36.3327 25.1144 36.7804 24.6667 37.3327 24.6667H39.3327C40.6213 24.6667 41.666 25.7114 41.666 27V29C41.666 29.5523 41.2183 30 40.666 30C40.1137 30 39.666 29.5523 39.666 29V28.0809L36.5921 31.1549C35.1602 32.5868 32.8385 32.5868 31.4066 31.1549L29.8445 29.5928C29.1937 28.9419 28.1384 28.9419 27.4875 29.5928L24.0398 33.0405C23.6493 33.431 23.0161 33.431 22.6256 33.0405C22.2351 32.65 22.2351 32.0168 22.6256 31.6263L26.0733 28.1786C27.5052 26.7466 29.8268 26.7466 31.2587 28.1786L32.8208 29.7407C33.4717 30.3915 34.527 30.3915 35.1779 29.7406L38.2518 26.6667H37.3327C36.7804 26.6667 36.3327 26.219 36.3327 25.6667Z" fill="#34FA48"/>
<defs>
<linearGradient id="paint0_linear_2010_5255" x1="30.333" y1="0" x2="30.333" y2="60" gradientUnits="userSpaceOnUse">
<stop stop-color="#47FB5C"/>
<stop offset="1" stop-color="#30AE3F"/>
</linearGradient>
</defs>
</svg>
