<svg width="61" height="60" viewBox="0 0 61 60" fill="none" xmlns="http://www.w3.org/2000/svg">
<rect x="0.333984" width="60" height="60" rx="30" fill="#020201" fill-opacity="0.1"/>
<path fill-rule="evenodd" clip-rule="evenodd" d="M24.334 14C18.8111 14 14.334 18.4772 14.334 24V36C14.334 41.5228 18.8111 46 24.334 46H36.334C41.8568 46 46.334 41.5228 46.334 36V24C46.334 18.4772 41.8568 14 36.334 14H24.334ZM39.934 22C40.8176 22 41.534 21.2837 41.534 20.4C41.534 19.5163 40.8176 18.8 39.934 18.8C39.0503 18.8 38.334 19.5163 38.334 20.4C38.334 21.2837 39.0503 22 39.934 22ZM38.334 30C38.334 34.4183 34.7523 38 30.334 38C25.9157 38 22.334 34.4183 22.334 30C22.334 25.5817 25.9157 22 30.334 22C34.7523 22 38.334 25.5817 38.334 30ZM30.3342 34.8C32.9851 34.8 35.1342 32.651 35.1342 30C35.1342 27.349 32.9851 25.2 30.3342 25.2C27.6832 25.2 25.5342 27.349 25.5342 30C25.5342 32.651 27.6832 34.8 30.3342 34.8Z" fill="#020201"/>
</svg>
