<svg width="61" height="60" viewBox="0 0 61 60" fill="none" xmlns="http://www.w3.org/2000/svg">
<rect x="0.666992" width="60" height="60" rx="30" fill="url(#paint0_linear_2010_5267)" fill-opacity="0.1"/>
<path fill-rule="evenodd" clip-rule="evenodd" d="M35.47 21H25.8647C24.3147 18.9064 26.4029 15.9763 28.9968 16.8131L30.2338 17.2121C30.5154 17.303 30.8192 17.303 31.1009 17.2121L32.3379 16.8131C34.9318 15.9763 37.02 18.9064 35.47 21ZM26.0089 23H35.3258C37.0848 23.9739 38.4591 25.6001 39.0883 27.6138L40.755 32.9471C42.3648 38.0985 38.5163 43.3333 33.1192 43.3333H28.2155C22.8184 43.3333 18.9699 38.0985 20.5797 32.9471L22.2464 27.6138C22.8756 25.6001 24.2499 23.9739 26.0089 23ZM35.1526 37.541C35.6355 37.2729 35.8097 36.6642 35.5417 36.1813C35.2736 35.6984 34.6649 35.5243 34.182 35.7923C32.6232 36.6575 31.5546 37.0001 30.5875 36.9962C29.6253 36.9923 28.6149 36.6448 27.1711 35.8028C26.694 35.5246 26.0817 35.6858 25.8035 36.1629C25.5253 36.6399 25.6865 37.2522 26.1635 37.5305C27.7256 38.4414 29.1004 38.9902 30.5794 38.9962C32.0534 39.0022 33.4819 38.4683 35.1526 37.541Z" fill="#F2C654"/>
<defs>
<linearGradient id="paint0_linear_2010_5267" x1="30.667" y1="0" x2="30.667" y2="60" gradientUnits="userSpaceOnUse">
<stop stop-color="#F2C654"/>
<stop offset="1" stop-color="#FFE62E"/>
</linearGradient>
</defs>
</svg>
