<svg width="60" height="60" viewBox="0 0 60 60" fill="none" xmlns="http://www.w3.org/2000/svg">
<rect width="60" height="60" rx="30" fill="#F2C654" fill-opacity="0.1"/>
<path d="M40.667 18H24.667C23.1942 18 22.0003 19.1939 22.0003 20.6667V24.6667C22.0003 25.403 21.4034 26 20.667 26C18.4579 26 16.667 27.7909 16.667 30C16.667 32.2091 18.4579 34 20.667 34C21.4034 34 22.0003 34.597 22.0003 35.3333V39.3333C22.0003 40.8061 23.1942 42 24.667 42H27.3337C28.07 42 28.667 41.403 28.667 40.6667C28.667 38.4575 30.4579 36.6667 32.667 36.6667C34.8761 36.6667 36.667 38.4575 36.667 40.6667C36.667 41.403 37.2639 42 38.0003 42H40.667C42.1398 42 43.3337 40.8061 43.3337 39.3333V35.3333C43.3337 34.597 42.7367 34 42.0003 34C39.7912 34 38.0003 32.2091 38.0003 30C38.0003 27.7909 39.7912 26 42.0003 26C42.7367 26 43.3337 25.403 43.3337 24.6667V20.6667C43.3337 19.1939 42.1398 18 40.667 18Z" fill="#F2C654"/>
</svg>
